<?xml version="1.0" encoding="UTF-8" standalone="no"?>
<!DOCTYPE svg PUBLIC "-//W3C//DTD SVG 1.1//EN"
 "http://www.w3.org/Graphics/SVG/1.1/DTD/svg11.dtd">
<!-- Generated by graphviz version 7.0.5 (20221223.1930)
 -->
<!-- Pages: 1 -->
<svg width="1337pt" height="332pt"
 viewBox="0.00 0.00 1337.11 332.00" xmlns="http://www.w3.org/2000/svg" xmlns:xlink="http://www.w3.org/1999/xlink">
<g id="graph0" class="graph" transform="scale(1 1) rotate(0) translate(4 328)">
<polygon fill="white" stroke="none" points="-4,4 -4,-328 1333.11,-328 1333.11,4 -4,4"/>
<!-- [root] aws_instance.web (expand) -->
<g id="node1" class="node">
<title>[root] aws_instance.web (expand)</title>
<polygon fill="none" stroke="black" points="753.34,-180 616.34,-180 616.34,-144 753.34,-144 753.34,-180"/>
<text text-anchor="middle" x="684.84" y="-158.3" font-family="Times,serif" font-size="14.00">aws_instance.web</text>
</g>
<!-- [root] data.aws_ami.ubuntu (expand) -->
<g id="node3" class="node">
<title>[root] data.aws_ami.ubuntu (expand)</title>
<polygon fill="none" stroke="black" points="843.34,-108 684.34,-108 684.34,-72 843.34,-72 843.34,-108"/>
<text text-anchor="middle" x="763.84" y="-86.3" font-family="Times,serif" font-size="14.00">data.aws_ami.ubuntu</text>
</g>
<!-- [root] aws_instance.web (expand)&#45;&gt;[root] data.aws_ami.ubuntu (expand) -->
<g id="edge1" class="edge">
<title>[root] aws_instance.web (expand)&#45;&gt;[root] data.aws_ami.ubuntu (expand)</title>
<path fill="none" stroke="black" d="M704.36,-143.7C713.86,-135.28 725.44,-125.02 735.86,-115.79"/>
<polygon fill="black" stroke="black" points="737.96,-118.6 743.13,-109.35 733.32,-113.36 737.96,-118.6"/>
</g>
<!-- [root] aws_instance.web2 (expand) -->
<g id="node2" class="node">
<title>[root] aws_instance.web2 (expand)</title>
<polygon fill="none" stroke="black" points="1001.84,-180 857.84,-180 857.84,-144 1001.84,-144 1001.84,-180"/>
<text text-anchor="middle" x="929.84" y="-158.3" font-family="Times,serif" font-size="14.00">aws_instance.web2</text>
</g>
<!-- [root] aws_instance.web2 (expand)&#45;&gt;[root] data.aws_ami.ubuntu (expand) -->
<g id="edge2" class="edge">
<title>[root] aws_instance.web2 (expand)&#45;&gt;[root] data.aws_ami.ubuntu (expand)</title>
<path fill="none" stroke="black" d="M888.38,-143.52C866.31,-134.21 838.96,-122.68 815.52,-112.79"/>
<polygon fill="black" stroke="black" points="817.02,-109.63 806.45,-108.97 814.3,-116.08 817.02,-109.63"/>
</g>
<!-- [root] provider[&quot;registry.terraform.io/hashicorp/aws&quot;] -->
<g id="node4" class="node">
<title>[root] provider[&quot;registry.terraform.io/hashicorp/aws&quot;]</title>
<polygon fill="none" stroke="black" points="763.84,-36 424.5,-18 763.84,0 1103.17,-18 763.84,-36"/>
<text text-anchor="middle" x="763.84" y="-14.3" font-family="Times,serif" font-size="14.00">provider[&quot;registry.terraform.io/hashicorp/aws&quot;]</text>
</g>
<!-- [root] data.aws_ami.ubuntu (expand)&#45;&gt;[root] provider[&quot;registry.terraform.io/hashicorp/aws&quot;] -->
<g id="edge3" class="edge">
<title>[root] data.aws_ami.ubuntu (expand)&#45;&gt;[root] provider[&quot;registry.terraform.io/hashicorp/aws&quot;]</title>
<path fill="none" stroke="black" d="M763.84,-71.7C763.84,-64.41 763.84,-55.73 763.84,-47.54"/>
<polygon fill="black" stroke="black" points="767.34,-47.62 763.84,-37.62 760.34,-47.62 767.34,-47.62"/>
</g>
<!-- [root] output.dns_name (expand) -->
<g id="node5" class="node">
<title>[root] output.dns_name (expand)</title>
<ellipse fill="none" stroke="black" cx="161.84" cy="-234" rx="161.67" ry="18"/>
<text text-anchor="middle" x="161.84" y="-230.3" font-family="Times,serif" font-size="14.00">[root] output.dns_name (expand)</text>
</g>
<!-- [root] output.dns_name (expand)&#45;&gt;[root] aws_instance.web (expand) -->
<g id="edge4" class="edge">
<title>[root] output.dns_name (expand)&#45;&gt;[root] aws_instance.web (expand)</title>
<path fill="none" stroke="black" d="M262.37,-219.54C362.06,-206.2 512.84,-186.02 604.72,-173.72"/>
<polygon fill="black" stroke="black" points="604.96,-177.22 614.41,-172.43 604.03,-170.28 604.96,-177.22"/>
</g>
<!-- [root] output.ip_address (expand) -->
<g id="node6" class="node">
<title>[root] output.ip_address (expand)</title>
<ellipse fill="none" stroke="black" cx="512.84" cy="-234" rx="171.67" ry="18"/>
<text text-anchor="middle" x="512.84" y="-230.3" font-family="Times,serif" font-size="14.00">[root] output.ip_address (expand)</text>
</g>
<!-- [root] output.ip_address (expand)&#45;&gt;[root] aws_instance.web (expand) -->
<g id="edge5" class="edge">
<title>[root] output.ip_address (expand)&#45;&gt;[root] aws_instance.web (expand)</title>
<path fill="none" stroke="black" d="M554.47,-216.05C577.7,-206.6 606.87,-194.73 631.73,-184.61"/>
<polygon fill="black" stroke="black" points="632.74,-187.98 640.69,-180.97 630.1,-181.5 632.74,-187.98"/>
</g>
<!-- [root] provider[&quot;registry.terraform.io/hashicorp/aws&quot;] (close) -->
<g id="node7" class="node">
<title>[root] provider[&quot;registry.terraform.io/hashicorp/aws&quot;] (close)</title>
<ellipse fill="none" stroke="black" cx="1015.84" cy="-234" rx="313.04" ry="18"/>
<text text-anchor="middle" x="1015.84" y="-230.3" font-family="Times,serif" font-size="14.00">[root] provider[&quot;registry.terraform.io/hashicorp/aws&quot;] (close)</text>
</g>
<!-- [root] provider[&quot;registry.terraform.io/hashicorp/aws&quot;] (close)&#45;&gt;[root] aws_instance.web (expand) -->
<g id="edge6" class="edge">
<title>[root] provider[&quot;registry.terraform.io/hashicorp/aws&quot;] (close)&#45;&gt;[root] aws_instance.web (expand)</title>
<path fill="none" stroke="black" d="M936.13,-216.14C884.27,-205.18 816.87,-190.92 764.93,-179.94"/>
<polygon fill="black" stroke="black" points="765.75,-176.53 755.24,-177.89 764.3,-183.38 765.75,-176.53"/>
</g>
<!-- [root] provider[&quot;registry.terraform.io/hashicorp/aws&quot;] (close)&#45;&gt;[root] aws_instance.web2 (expand) -->
<g id="edge7" class="edge">
<title>[root] provider[&quot;registry.terraform.io/hashicorp/aws&quot;] (close)&#45;&gt;[root] aws_instance.web2 (expand)</title>
<path fill="none" stroke="black" d="M994.58,-215.7C984.14,-207.2 971.38,-196.81 959.95,-187.51"/>
<polygon fill="black" stroke="black" points="962.29,-184.9 952.32,-181.3 957.87,-190.33 962.29,-184.9"/>
</g>
<!-- [root] root -->
<g id="node8" class="node">
<title>[root] root</title>
<ellipse fill="none" stroke="black" cx="512.84" cy="-306" rx="64.19" ry="18"/>
<text text-anchor="middle" x="512.84" y="-302.3" font-family="Times,serif" font-size="14.00">[root] root</text>
</g>
<!-- [root] root&#45;&gt;[root] output.dns_name (expand) -->
<g id="edge8" class="edge">
<title>[root] root&#45;&gt;[root] output.dns_name (expand)</title>
<path fill="none" stroke="black" d="M461.8,-294.82C406.23,-283.74 316.38,-265.82 249.48,-252.48"/>
<polygon fill="black" stroke="black" points="250.5,-249.11 240.01,-250.59 249.13,-255.98 250.5,-249.11"/>
</g>
<!-- [root] root&#45;&gt;[root] output.ip_address (expand) -->
<g id="edge9" class="edge">
<title>[root] root&#45;&gt;[root] output.ip_address (expand)</title>
<path fill="none" stroke="black" d="M512.84,-287.7C512.84,-280.41 512.84,-271.73 512.84,-263.54"/>
<polygon fill="black" stroke="black" points="516.34,-263.62 512.84,-253.62 509.34,-263.62 516.34,-263.62"/>
</g>
<!-- [root] root&#45;&gt;[root] provider[&quot;registry.terraform.io/hashicorp/aws&quot;] (close) -->
<g id="edge10" class="edge">
<title>[root] root&#45;&gt;[root] provider[&quot;registry.terraform.io/hashicorp/aws&quot;] (close)</title>
<path fill="none" stroke="black" d="M569.07,-297.17C645.8,-286.5 785.47,-267.06 888.29,-252.75"/>
<polygon fill="black" stroke="black" points="888.78,-256.22 898.2,-251.37 887.81,-249.28 888.78,-256.22"/>
</g>
</g>
</svg>
