<?xml version="1.0" encoding="UTF-8" standalone="no"?>
<!DOCTYPE svg PUBLIC "-//W3C//DTD SVG 1.1//EN"
 "http://www.w3.org/Graphics/SVG/1.1/DTD/svg11.dtd">
<!-- Generated by graphviz version 7.0.5 (20221223.1930)
 -->
<!-- Pages: 1 -->
<svg width="1014pt" height="404pt"
 viewBox="0.00 0.00 1014.11 404.00" xmlns="http://www.w3.org/2000/svg" xmlns:xlink="http://www.w3.org/1999/xlink">
<g id="graph0" class="graph" transform="scale(1 1) rotate(0) translate(4 400)">
<polygon fill="white" stroke="none" points="-4,4 -4,-400 1010.11,-400 1010.11,4 -4,4"/>
<!-- [root] aws_eip.ip (expand) -->
<g id="node1" class="node">
<title>[root] aws_eip.ip (expand)</title>
<polygon fill="none" stroke="black" points="690.84,-252 598.84,-252 598.84,-216 690.84,-216 690.84,-252"/>
<text text-anchor="middle" x="644.84" y="-230.3" font-family="Times,serif" font-size="14.00">aws_eip.ip</text>
</g>
<!-- [root] aws_instance.web (expand) -->
<g id="node2" class="node">
<title>[root] aws_instance.web (expand)</title>
<polygon fill="none" stroke="black" points="430.34,-180 293.34,-180 293.34,-144 430.34,-144 430.34,-180"/>
<text text-anchor="middle" x="361.84" y="-158.3" font-family="Times,serif" font-size="14.00">aws_instance.web</text>
</g>
<!-- [root] aws_eip.ip (expand)&#45;&gt;[root] aws_instance.web (expand) -->
<g id="edge1" class="edge">
<title>[root] aws_eip.ip (expand)&#45;&gt;[root] aws_instance.web (expand)</title>
<path fill="none" stroke="black" d="M598.42,-221.52C555.98,-211.02 492.3,-195.27 441.7,-182.75"/>
<polygon fill="black" stroke="black" points="442.8,-179.42 432.25,-180.42 441.12,-186.22 442.8,-179.42"/>
</g>
<!-- [root] data.aws_ami.ubuntu (expand) -->
<g id="node3" class="node">
<title>[root] data.aws_ami.ubuntu (expand)</title>
<polygon fill="none" stroke="black" points="441.34,-108 282.34,-108 282.34,-72 441.34,-72 441.34,-108"/>
<text text-anchor="middle" x="361.84" y="-86.3" font-family="Times,serif" font-size="14.00">data.aws_ami.ubuntu</text>
</g>
<!-- [root] aws_instance.web (expand)&#45;&gt;[root] data.aws_ami.ubuntu (expand) -->
<g id="edge2" class="edge">
<title>[root] aws_instance.web (expand)&#45;&gt;[root] data.aws_ami.ubuntu (expand)</title>
<path fill="none" stroke="black" d="M361.84,-143.7C361.84,-136.41 361.84,-127.73 361.84,-119.54"/>
<polygon fill="black" stroke="black" points="365.34,-119.62 361.84,-109.62 358.34,-119.62 365.34,-119.62"/>
</g>
<!-- [root] provider[&quot;registry.terraform.io/hashicorp/aws&quot;] -->
<g id="node4" class="node">
<title>[root] provider[&quot;registry.terraform.io/hashicorp/aws&quot;]</title>
<polygon fill="none" stroke="black" points="361.84,-36 22.5,-18 361.84,0 701.17,-18 361.84,-36"/>
<text text-anchor="middle" x="361.84" y="-14.3" font-family="Times,serif" font-size="14.00">provider[&quot;registry.terraform.io/hashicorp/aws&quot;]</text>
</g>
<!-- [root] data.aws_ami.ubuntu (expand)&#45;&gt;[root] provider[&quot;registry.terraform.io/hashicorp/aws&quot;] -->
<g id="edge3" class="edge">
<title>[root] data.aws_ami.ubuntu (expand)&#45;&gt;[root] provider[&quot;registry.terraform.io/hashicorp/aws&quot;]</title>
<path fill="none" stroke="black" d="M361.84,-71.7C361.84,-64.41 361.84,-55.73 361.84,-47.54"/>
<polygon fill="black" stroke="black" points="365.34,-47.62 361.84,-37.62 358.34,-47.62 365.34,-47.62"/>
</g>
<!-- [root] output.dns_name (expand) -->
<g id="node5" class="node">
<title>[root] output.dns_name (expand)</title>
<ellipse fill="none" stroke="black" cx="161.84" cy="-306" rx="161.67" ry="18"/>
<text text-anchor="middle" x="161.84" y="-302.3" font-family="Times,serif" font-size="14.00">[root] output.dns_name (expand)</text>
</g>
<!-- [root] output.dns_name (expand)&#45;&gt;[root] aws_instance.web (expand) -->
<g id="edge4" class="edge">
<title>[root] output.dns_name (expand)&#45;&gt;[root] aws_instance.web (expand)</title>
<path fill="none" stroke="black" d="M160.63,-287.58C160.24,-267.7 162.78,-235.46 180.84,-216 206.77,-188.05 246.57,-174.56 282.25,-168.16"/>
<polygon fill="black" stroke="black" points="282.36,-171.69 291.67,-166.64 281.24,-164.78 282.36,-171.69"/>
</g>
<!-- [root] output.ip_address (expand) -->
<g id="node6" class="node">
<title>[root] output.ip_address (expand)</title>
<ellipse fill="none" stroke="black" cx="361.84" cy="-234" rx="171.67" ry="18"/>
<text text-anchor="middle" x="361.84" y="-230.3" font-family="Times,serif" font-size="14.00">[root] output.ip_address (expand)</text>
</g>
<!-- [root] output.ip_address (expand)&#45;&gt;[root] aws_instance.web (expand) -->
<g id="edge5" class="edge">
<title>[root] output.ip_address (expand)&#45;&gt;[root] aws_instance.web (expand)</title>
<path fill="none" stroke="black" d="M361.84,-215.7C361.84,-208.41 361.84,-199.73 361.84,-191.54"/>
<polygon fill="black" stroke="black" points="365.34,-191.62 361.84,-181.62 358.34,-191.62 365.34,-191.62"/>
</g>
<!-- [root] provider[&quot;registry.terraform.io/hashicorp/aws&quot;] (close) -->
<g id="node7" class="node">
<title>[root] provider[&quot;registry.terraform.io/hashicorp/aws&quot;] (close)</title>
<ellipse fill="none" stroke="black" cx="692.84" cy="-306" rx="313.04" ry="18"/>
<text text-anchor="middle" x="692.84" y="-302.3" font-family="Times,serif" font-size="14.00">[root] provider[&quot;registry.terraform.io/hashicorp/aws&quot;] (close)</text>
</g>
<!-- [root] provider[&quot;registry.terraform.io/hashicorp/aws&quot;] (close)&#45;&gt;[root] aws_eip.ip (expand) -->
<g id="edge6" class="edge">
<title>[root] provider[&quot;registry.terraform.io/hashicorp/aws&quot;] (close)&#45;&gt;[root] aws_eip.ip (expand)</title>
<path fill="none" stroke="black" d="M680.97,-287.7C675.56,-279.81 669.04,-270.3 663.04,-261.55"/>
<polygon fill="black" stroke="black" points="665.96,-259.62 657.42,-253.35 660.19,-263.58 665.96,-259.62"/>
</g>
<!-- [root] root -->
<g id="node8" class="node">
<title>[root] root</title>
<ellipse fill="none" stroke="black" cx="351.84" cy="-378" rx="64.19" ry="18"/>
<text text-anchor="middle" x="351.84" y="-374.3" font-family="Times,serif" font-size="14.00">[root] root</text>
</g>
<!-- [root] root&#45;&gt;[root] output.dns_name (expand) -->
<g id="edge7" class="edge">
<title>[root] root&#45;&gt;[root] output.dns_name (expand)</title>
<path fill="none" stroke="black" d="M314.3,-363.17C286.73,-353.01 248.81,-339.04 217.69,-327.58"/>
<polygon fill="black" stroke="black" points="219.01,-324.33 208.41,-324.16 216.59,-330.9 219.01,-324.33"/>
</g>
<!-- [root] root&#45;&gt;[root] output.ip_address (expand) -->
<g id="edge8" class="edge">
<title>[root] root&#45;&gt;[root] output.ip_address (expand)</title>
<path fill="none" stroke="black" d="M353.06,-359.59C354.75,-335.61 357.81,-292.14 359.83,-263.42"/>
<polygon fill="black" stroke="black" points="363.31,-263.84 360.52,-253.62 356.33,-263.35 363.31,-263.84"/>
</g>
<!-- [root] root&#45;&gt;[root] provider[&quot;registry.terraform.io/hashicorp/aws&quot;] (close) -->
<g id="edge9" class="edge">
<title>[root] root&#45;&gt;[root] provider[&quot;registry.terraform.io/hashicorp/aws&quot;] (close)</title>
<path fill="none" stroke="black" d="M402.52,-366.6C454.33,-355.96 535.97,-339.2 599.51,-326.16"/>
<polygon fill="black" stroke="black" points="600.17,-329.6 609.26,-324.16 598.76,-322.74 600.17,-329.6"/>
</g>
</g>
</svg>
